<svg xmlns="http://www.w3.org/2000/svg" style="display: none;"><symbol id="fire" viewBox="0 0 512.019 512.019"><title>fire</title><path d="M447.28,304.8l-0.365-5.01c-5.865-76.354-41.417-124.219-72.781-166.438c-29.042-39.094-54.125-72.854-54.125-122.667 c0-4-2.24-7.656-5.792-9.49c-3.563-1.844-7.844-1.542-11.083,0.813c-47.104,33.708-86.406,90.521-100.135,144.729 c-9.531,37.74-10.792,80.167-10.969,108.188c-43.5-9.292-53.354-74.365-53.458-75.073c-0.49-3.375-2.552-6.313-5.552-7.917 c-3.031-1.583-6.594-1.698-9.667-0.177c-2.281,1.104-55.99,28.396-59.115,137.375c-0.219,3.625-0.229,7.25-0.229,10.885 c0,105.865,86.135,192,192,192s192-86.135,192-192C448.009,314.706,447.645,309.748,447.28,304.8z M256.009,490.685 c-35.292,0-64-30.583-64-68.177c0-1.281-0.01-2.573,0.083-4.156c0.427-15.854,3.438-26.677,6.74-33.875 c6.188,13.292,17.26,25.51,35.219,25.51c5.896,0,10.667-4.771,10.667-10.667c0-15.188,0.313-32.708,4.094-48.521 c3.365-14.031,11.406-28.938,21.594-40.896c4.531,15.521,13.365,28.083,21.99,40.344c12.344,17.542,25.104,35.677,27.344,66.604 c0.135,1.833,0.271,3.677,0.271,5.656C320.009,460.102,291.301,490.685,256.009,490.685z M323.421,476.748 c11.072-15.099,17.922-33.763,17.922-54.24c0-2.51-0.156-4.844-0.469-9.208c-2.531-34.823-17.667-56.344-31.031-75.333 c-11.385-16.167-21.208-30.135-21.208-49.948c0-4.052-2.292-7.75-5.917-9.552c-3.604-1.813-7.958-1.406-11.177,1.042 c-20.458,15.458-37.521,41.479-43.479,66.323c-3.042,12.74-4.104,26.521-4.479,37.854c-7.396-7.958-9.688-22.708-9.708-22.906 c-0.479-3.427-2.583-6.417-5.656-8.01c-3.052-1.583-6.708-1.625-9.781-0.042c-2.688,1.375-26.302,14.917-27.656,64.729 c-0.094,1.688-0.104,3.375-0.104,5.052c0,20.477,6.85,39.141,17.922,54.24c-60.664-26.195-103.255-86.563-103.255-156.729 c0-3.198-0.01-6.385,0.208-9.938c1.833-63.938,22.292-95.646,35.646-109.635c9.312,33.333,33.708,76.906,81.479,76.906 c5.896,0,10.667-4.771,10.667-10.667c0-35.698,0.802-76.948,10.344-114.719c10.833-42.792,40.51-89,76.333-120.281 c5.948,45.688,30.833,79.188,56.99,114.385c31.094,41.854,63.24,85.135,68.625,155.219l0.365,5.104 c0.333,4.438,0.677,8.865,0.677,13.625C426.676,390.185,384.085,450.553,323.421,476.748z"/></symbol><symbol id="flooded-house" viewBox="0 0 480.196 480.196"><title>flooded-house</title><g> <g> <path d="M437.746,221.757l-192-191.2c-3.122-3.1-8.162-3.096-11.28,0.008l-192,191.2c-3.229,3.016-3.402,8.078-0.386,11.307 c3.016,3.229,8.078,3.402,11.307,0.386c0.123-0.115,0.243-0.234,0.359-0.357l186.32-185.576l186.4,185.576 c3.186,3.061,8.25,2.96,11.311-0.226C440.765,229.766,440.751,224.849,437.746,221.757z"/> </g> </g><g> <g> <path d="M374.786,12.237H361.41c-14.28,0.31-25.616,12.119-25.344,26.4v49.688c0,4.418,3.582,8,8,8s8-3.582,8-8V38.637 c-0.273-5.445,3.901-10.09,9.344-10.4h13.376c5.418,0.343,9.554,4.978,9.28,10.4v100.8c0,4.418,3.582,8,8,8s8-3.582,8-8v-100.8 C400.339,24.38,389.041,12.582,374.786,12.237z"/> </g> </g><g> <g> <path d="M272.066,131.437H227.41l18.344-18.344c3.126-3.122,3.129-8.188,0.006-11.314c-0.002-0.002-0.004-0.004-0.006-0.006 c-3.124-3.123-8.188-3.123-11.312,0l-32,32c-3.128,3.12-3.135,8.186-0.014,11.314c1.495,1.498,3.522,2.343,5.638,2.35h64 c4.418,0,8-3.582,8-8S276.485,131.437,272.066,131.437z"/> </g> </g><g> <g> <path d="M477.778,389.773l-8.024-8c-16.286-16.246-41.154-20.216-61.688-9.848v-120c0-4.418-3.582-8-8-8s-8,3.582-8,8v131.768 c-14.721,12.566-36.622,11.731-50.344-1.92c-11.978-11.953-28.931-17.49-45.656-14.912V260.237c0-4.418-3.582-8-8-8h-96 c-4.418,0-8,3.582-8,8v106.624c-16.706-2.561-33.635,2.975-45.6,14.912c-13.722,13.651-35.623,14.486-50.344,1.92V244.237 c0-4.418-3.582-8-8-8c-4.418,0-8,3.582-8,8v127.688c-20.526-10.352-45.376-6.383-61.656,9.848l-8,8 c-3.07,3.178-2.982,8.242,0.196,11.312c3.1,2.994,8.016,2.994,11.116,0l8-8c14.128-14.061,36.825-14.495,51.48-0.984 c0.889,1.633,2.329,2.898,4.064,3.568c21.105,18.237,52.704,17.111,72.456-2.584c14.558-14.527,38.129-14.527,52.688,0 c20.808,20.769,54.504,20.769,75.312,0c14.558-14.527,38.129-14.527,52.688,0c19.737,19.729,51.364,20.857,72.456,2.584 c1.735-0.67,3.175-1.935,4.064-3.568c14.655-13.511,37.352-13.077,51.48,0.984l8,8c3.178,3.07,8.242,2.982,11.312-0.196 C480.773,397.789,480.773,392.873,477.778,389.773z M280.066,371.925c-5.028,2.539-9.619,5.863-13.6,9.848h-0.024 c-14.555,14.536-38.133,14.536-52.688,0c-4.008-3.992-8.629-7.317-13.688-9.848V268.237h80V371.925z"/> </g> </g><g> <g> <path d="M477.95,449.521c-0.064-0.066-0.129-0.132-0.196-0.196l-8-8c-20.808-20.769-54.504-20.769-75.312,0 c-14.549,14.549-38.139,14.549-52.688,0c0,0,0,0,0,0c-20.808-20.769-54.504-20.769-75.312,0 c-14.549,14.549-38.139,14.549-52.688,0c0,0,0,0,0,0c-20.808-20.769-54.504-20.769-75.312,0 c-14.549,14.549-38.139,14.549-52.688,0c0,0,0,0,0,0c-20.808-20.769-54.504-20.769-75.312,0l-8,8 c-3.178,3.069-3.266,8.134-0.196,11.312s8.134,3.266,11.312,0.196c0.067-0.064,0.132-0.13,0.196-0.196l8-8 c14.555-14.536,38.133-14.536,52.688,0c20.792,20.797,54.507,20.8,75.304,0.008c0.003-0.003,0.005-0.005,0.008-0.008 c14.555-14.536,38.133-14.536,52.688,0c20.792,20.797,54.507,20.8,75.304,0.008c0.003-0.003,0.005-0.005,0.008-0.008 c14.555-14.536,38.133-14.536,52.688,0c20.792,20.797,54.507,20.8,75.304,0.008c0.003-0.003,0.005-0.005,0.008-0.008 c14.555-14.536,38.133-14.536,52.688,0l8,8c3.07,3.178,8.134,3.266,11.312,0.196C480.932,457.763,481.02,452.699,477.95,449.521z"/> </g> </g><g> <g> <path d="M53.754,54.581l-32-32c-3.277-2.963-8.336-2.709-11.299,0.569c-2.759,3.051-2.754,7.698,0.011,10.743l32,32 c3.277,2.963,8.336,2.709,11.299-0.569C56.525,62.273,56.52,57.627,53.754,54.581z"/> </g> </g><g> <g> <path d="M85.975,86.778c-0.064-0.067-0.13-0.132-0.197-0.197l-8-8c-3.124-3.123-8.188-3.123-11.312,0 c-3.123,3.124-3.123,8.188,0,11.312l8,8c3.069,3.178,8.134,3.266,11.312,0.197C88.956,95.02,89.044,89.956,85.975,86.778z"/> </g> </g><g> <g> <path d="M141.778,78.581l-48-48c-3.124-3.123-8.188-3.123-11.312,0c-3.123,3.124-3.123,8.188,0,11.312l48,48 c3.178,3.069,8.243,2.981,11.312-0.197C144.772,86.596,144.772,81.681,141.778,78.581z"/> </g> </g><g> <g> <path d="M77.975,134.778c-0.064-0.067-0.13-0.132-0.197-0.197l-24-24c-3.124-3.123-8.188-3.123-11.312,0 c-3.123,3.124-3.123,8.188,0,11.312l24,24c3.069,3.178,8.134,3.266,11.312,0.197C80.956,143.02,81.044,137.956,77.975,134.778z"/> </g> </g><g> <g> <path d="M29.778,86.581l-16-16c-3.124-3.123-8.188-3.123-11.312,0c-3.123,3.124-3.123,8.188,0,11.312l16,16 c3.178,3.069,8.243,2.981,11.312-0.197C32.772,94.596,32.772,89.681,29.778,86.581z"/> </g> </g><g> <g> <path d="M157.778,30.581l-16.024-16c-2.97-3.271-8.03-3.515-11.301-0.545c-3.271,2.97-3.515,8.03-0.545,11.301 c0.177,0.194,0.362,0.38,0.557,0.556l16,16c3.178,3.069,8.243,2.981,11.312-0.197C160.772,38.596,160.772,33.681,157.778,30.581z"/> </g> </g></symbol><symbol id="hurricane" viewBox="0 0 511 511.9989"><title>hurricane</title><path d="m38.359375 94.957031h57.859375c26.175781 0 47.472656-21.296875 47.472656-47.472656 0-26.179687-21.296875-47.4765625-47.472656-47.4765625-16.90625 0-32.660156 9.0976565-41.113281 23.7382815-2.761719 4.78125-1.125 10.898437 3.660156 13.660156s10.898437 1.121094 13.660156-3.660156c4.890625-8.472656 14.007813-13.738282 23.792969-13.738282 15.148438 0 27.472656 12.328126 27.472656 27.476563s-12.324218 27.476563-27.472656 27.476563h-57.859375c-5.523437 0-10 4.476562-10 10 0 5.519531 4.476563 9.996093 10 9.996093zm0 0"/><path d="m10.5 160.941406h162.171875c20.144531 0 36.535156-16.386718 36.535156-36.53125 0-20.144531-16.390625-36.53125-36.535156-36.53125-13.007813 0-25.128906 6.996094-31.632813 18.265625-2.761718 4.78125-1.125 10.898438 3.660157 13.660157 4.78125 2.761718 10.898437 1.121093 13.65625-3.660157 2.945312-5.101562 8.429687-8.265625 14.316406-8.265625 9.117187 0 16.535156 7.414063 16.535156 16.53125 0 9.113282-7.417969 16.53125-16.535156 16.53125h-162.171875c-5.523438 0-10 4.476563-10 10 0 5.523438 4.476562 10 10 10zm0 0"/><path d="m502.488281 460h-71.488281l15.347656-78.445312c.550782.035156 1.101563.058593 1.648438.058593 12.175781 0 23.082031-8.621093 25.507812-21.011719 1.328125-6.796874-.078125-13.71875-3.960937-19.492187-3.246094-4.824219-7.890625-8.34375-13.296875-10.148437l16.152344-82.566407c0-.007812 0-.011719.003906-.019531.0625-.316406.105468-.636719.136718-.957031.015626-.152344.015626-.304688.023438-.457031.011719-.171876.023438-.347657.023438-.519532 0-.175781-.015626-.347656-.023438-.519531-.007812-.152344-.011719-.304687-.027344-.460937-.019531-.167969-.046875-.332032-.074218-.5-.023438-.15625-.042969-.3125-.074219-.46875s-.074219-.308594-.113281-.464844c-.042969-.160156-.078126-.324219-.128907-.484375-.042969-.148438-.101562-.292969-.152343-.4375-.058594-.164063-.113282-.324219-.179688-.484375s-.144531-.3125-.21875-.46875c-.066406-.136719-.128906-.277344-.199219-.414063-.148437-.273437-.308593-.535156-.476562-.792969-.011719-.015624-.023438-.035156-.035157-.054687l-84.839843-126.113281c-3.082031-4.582032-9.296875-5.796875-13.878907-2.714844l-126.097656 84.828125c-.28125.191406-.554687.394531-.816406.609375-.085938.074219-.164062.152344-.25.230469-.15625.140625-.320312.277343-.46875.429687-.105469.109375-.203125.222656-.304688.335938-.117187.128906-.238281.253906-.347656.390625-.101562.121093-.1875.25-.28125.375-.101562.136719-.207031.269531-.300781.414062-.082031.125-.15625.253907-.234375.386719-.089844.148438-.183594.296875-.265625.457031-.070313.132813-.128906.269531-.195313.402344-.074218.160156-.152343.316406-.21875.480469-.066406.160156-.121093.328125-.175781.492187-.050781.144531-.105469.28125-.152343.429688-.089844.308593-.171876.625-.234376.941406 0 .007813 0 .011719-.003906.015625l-16.152344 82.570312c-5.6875-.367187-11.316406 1.140626-16.140624 4.386719-5.769532 3.882813-9.683594 9.765625-11.015626 16.5625-2.53125 12.945313 5.066407 25.5625 17.261719 29.640625l-24.175781 123.558594h-181.09375c-5.523438 0-10 4.476562-10 10v32c0 5.523438 4.476562 10 10 10h491.988281c5.523438 0 10-4.476562 10-10v-32c0-5.523438-4.476562-10-10-10zm-128.425781-216.667969-13.4375 68.695313-39.253906-7.679688 13.4375-68.695312c1.058594-5.414063 6.320312-8.953125 11.734375-7.894532l19.628906 3.839844c2.597656.507813 4.855469 2.015625 6.355469 4.246094 1.5 2.226562 2.046875 4.886719 1.535156 7.488281zm.964844-109.09375 76.949218 114.382813-15.316406 78.28125-56.410156-11.035156 13.441406-68.695313c1.535156-7.84375-.089844-15.828125-4.570312-22.492187-4.480469-6.660157-11.269532-11.175782-19.109375-12.707032l-19.628907-3.839844c-16.234374-3.179687-32.023437 7.445313-35.199218 23.679688l-13.441406 68.695312-56.410157-11.035156 15.316407-78.28125zm-156.894532 176.40625c.304688-1.558593 1.210938-2.910156 2.550782-3.8125 1.015625-.679687 2.175781-1.035156 3.351562-1.035156.378906 0 .761719.035156 1.136719.109375l223.964844 43.816406c1.558593.304688 2.910156 1.210938 3.8125 2.550782.902343 1.339843 1.230469 2.9375.925781 4.492187-.625 3.191406-3.847656 5.363281-7.042969 4.734375l-223.960937-43.816406c-1.558594-.304688-2.910156-1.210938-3.8125-2.550782-.902344-1.339843-1.230469-2.933593-.925782-4.488281zm17.214844 29.859375 191.328125 37.433594-16.054687 82.066406h-58.566406l7.863281-40.195312c3.175781-16.234375-7.449219-32.023438-23.683594-35.199219l-19.625-3.84375c-16.230469-3.171875-32.027344 7.449219-35.203125 23.683594l-10.867188 55.554687h-58.570312zm55.570313 119.496094 10.117187-51.710938c1.058594-5.414062 6.316406-8.953124 11.730469-7.894531l19.628906 3.839844c2.601563.507813 4.859375 2.015625 6.355469 4.246094 1.5 2.230469 2.046875 4.886719 1.539062 7.488281l-8.617187 44.035156h-40.753906zm201.570312 32h-471.988281v-12h471.988281zm0 0"/><path d="m93.804688 249.308594c-9.378907 0-18.117188-5.046875-22.808594-13.167969-2.761719-4.785156-8.882813-6.425781-13.660156-3.660156-4.785157 2.761719-6.421876 8.875-3.660157 13.65625 8.25 14.292969 23.628907 23.171875 40.128907 23.171875 25.550781 0 46.339843-20.789063 46.339843-46.339844s-20.789062-46.339844-46.339843-46.339844h-54.308594c-5.519532 0-10 4.476563-10 10 0 5.523438 4.480468 10 10 10h54.308594c14.523437 0 26.339843 11.816406 26.339843 26.339844s-11.816406 26.339844-26.339843 26.339844zm0 0"/><path d="m10.5 196.628906h.269531c5.523438 0 10-4.476562 10-10 0-5.523437-4.476562-10-10-10h-.269531c-5.523438 0-10 4.476563-10 10 0 5.523438 4.476562 10 10 10zm0 0"/><path d="m75.621094 437.828125c1.574218.910156 3.292968 1.339844 4.992187 1.339844 3.453125 0 6.816407-1.792969 8.667969-5l7.402344-12.820313c4.507812 1.417969 9.132812 2.125 13.730468 2.125 15.925782 0 31.441407-8.257812 39.964844-23.015625 9.050782-15.675781 21.519532-63.472656 24.710938-94.707031 1.035156-10.128906-2.660156-18.636719-9.886719-22.757812-7.644531-4.355469-17.277344-2.976563-26.433594 3.785156-25.152343 18.585937-59.554687 52.710937-68.164062 67.621094-6.273438 10.867187-7.941407 23.367187-4.695313 35.199218 2.320313 8.46875 6.980469 15.953125 13.429688 21.789063l-7.378906 12.78125c-2.761719 4.78125-1.121094 10.898437 3.660156 13.660156zm9.578125-53.515625c-1.820313-6.640625-.851563-13.710938 2.730469-19.914062 6.535156-11.320313 38.746093-43.816407 62.726562-61.535157 2.0625-1.523437 3.59375-2.101562 4.425781-2.277343.140625.554687.273438 1.554687.113281 3.132812-3.039062 29.726562-15.242187 74.796875-22.136718 86.734375-5.414063 9.378906-15.8125 14.113281-25.933594 12.808594l11.15625-19.324219c2.761719-4.785156 1.125-10.898438-3.660156-13.660156-4.78125-2.761719-10.898438-1.125-13.660156 3.660156l-11.203126 19.40625c-2.097656-2.667969-3.652343-5.71875-4.558593-9.03125zm0 0"/><path d="m482.574219 124.167969c-5.226563 1.792969-8.007813 7.480469-6.21875 12.703125l.089843.253906c1.421876 4.152344 5.304688 6.761719 9.457032 6.761719 1.074218 0 2.171875-.175781 3.246094-.542969 5.222656-1.792969 8.003906-7.480469 6.214843-12.703125l-.085937-.257813c-1.792969-5.222656-7.480469-8.007812-12.703125-6.214843zm0 0"/><path d="m261.664062 103.84375c6.25 3.058594 13.300782 3.503906 19.851563 1.257812l134.316406-46.066406 46.066407 134.316406c2.246093 6.550782 6.925781 11.84375 13.175781 14.902344 3.625 1.773438 7.519531 2.667969 11.429687 2.667969 2.832032 0 5.671875-.46875 8.421875-1.414063 13.5625-4.648437 20.8125-19.46875 16.160157-33.027343l-2.757813-8.039063c-1.792969-5.222656-7.476563-8.007812-12.703125-6.214844-5.222656 1.792969-8.007812 7.480469-6.214844 12.703126l2.757813 8.039062c1.054687 3.074219-.652344 6.566406-3.730469 7.621094-1.5.515625-3.125.40625-4.574219-.300782-1.449219-.710937-2.53125-1.925781-3.046875-3.425781l-49.308594-143.777343c-1.792968-5.222657-7.480468-8.007813-12.703124-6.214844l-143.777344 49.3125c-1.5.511718-3.125.40625-4.574219-.304688-1.453125-.707031-2.53125-1.925781-3.046875-3.425781s-.40625-3.125.300781-4.574219c.710938-1.453125 1.925781-2.535156 3.425781-3.046875l158.910157-54.5c1.5-.515625 3.125-.40625 4.574219.300781 1.453124.710938 2.535156 1.925782 3.050781 3.425782l29.367187 85.636718c1.792969 5.222657 7.476563 8.007813 12.703125 6.214844 5.226563-1.792968 8.007813-7.480468 6.214844-12.703125l-29.371094-85.636719c-2.246093-6.550781-6.925781-11.84375-13.175781-14.902343-6.25-3.058594-13.300781-3.503907-19.851562-1.253907l-158.90625 54.5c-6.554688 2.246094-11.847657 6.925782-14.90625 13.175782-3.054688 6.25-3.5 13.300781-1.253907 19.851562 2.246094 6.554688 6.925781 11.84375 13.175781 14.902344zm0 0"/></symbol><symbol id="volcano" viewBox="0 0 512.002 512.002"><title>volcano</title><g> <g> <path d="M330.904,45.218c-0.882,0-1.768,0.02-2.656,0.057c-14.143-27.738-42.444-45.274-74.055-45.274 c-29.658,0-57.189,16.073-71.958,41.482c-0.381-0.007-0.761-0.011-1.138-0.011c-35.014,0-63.5,28.486-63.5,63.5 s28.486,63.5,63.5,63.5c5.523,0,10-4.478,10-10c0-5.522-4.477-10-10-10c-23.986,0-43.5-19.514-43.5-43.5s19.514-43.5,43.5-43.5 c1.804,0,3.703,0.128,5.645,0.379c4.3,0.552,8.471-1.721,10.325-5.642C207.47,34.213,229.893,20,254.193,20 c25.959,0,48.981,15.572,58.651,39.671c1.748,4.354,6.286,6.912,10.913,6.143c2.389-0.396,4.793-0.596,7.147-0.596 c23.986,0,43.5,19.514,43.5,43.5c0,23.986-19.514,43.5-43.5,43.5c-5.523,0-10,4.478-10,10c0,5.522,4.477,10,10,10 c35.014,0,63.5-28.486,63.5-63.5C394.404,73.704,365.918,45.218,330.904,45.218z"/> </g> </g><g> <g> <path d="M132.459,202.045c-3.905-3.904-10.237-3.904-14.143,0c-10.313,10.314-27.094,10.314-37.406,0 c-10.313-10.313-10.313-27.094-0.003-37.403c0.776-0.776,1.651-1.54,2.601-2.272c3.432-2.647,4.768-7.205,3.308-11.286 c-5.171-14.455-1.509-30.8,9.33-41.641c3.905-3.905,3.904-10.237-0.001-14.142c-3.906-3.906-10.237-3.905-14.143,0.001 c-14.648,14.65-20.57,35.991-15.952,55.929c-17.389,18.165-17.15,47.089,0.717,64.957c8.773,8.772,20.438,13.604,32.846,13.604 c12.408,0,24.072-4.832,32.846-13.604C136.364,212.283,136.364,205.951,132.459,202.045z"/> </g> </g><g> <g> <path d="M438.614,151.232c4.618-19.938-1.304-41.278-15.952-55.929c-3.905-3.905-10.236-3.905-14.143-0.001 c-3.905,3.904-3.906,10.236-0.001,14.142c10.839,10.841,14.501,27.186,9.33,41.641c-1.46,4.081-0.125,8.639,3.308,11.286 c0.949,0.732,1.824,1.496,2.597,2.27c10.313,10.313,10.313,27.094,0,37.406c-4.995,4.995-11.637,7.746-18.703,7.746 c-7.065,0-13.708-2.751-18.703-7.747c-3.905-3.904-10.237-3.904-14.143,0c-3.905,3.905-3.905,10.237,0,14.143 c9.056,9.056,20.951,13.583,32.846,13.583s23.79-4.527,32.846-13.583C455.763,198.322,456.002,169.4,438.614,151.232z"/> </g> </g><g> <g> <path d="M224.954,138.652c-3.54-4.24-9.846-4.81-14.086-1.269c-4.239,3.539-4.807,9.846-1.268,14.085 c13.373,16.02,21.042,38.775,21.042,62.436c0,5.522,4.477,10,10,10c5.523,0,10-4.478,10-10 C250.642,185.22,241.519,158.496,224.954,138.652z"/> </g> </g><g> <g> <path d="M194.502,115.305l-0.435-0.187c-5.08-2.162-10.954,0.197-13.12,5.278c-2.166,5.08,0.198,10.955,5.278,13.12l0.279,0.121 c1.302,0.567,2.659,0.837,3.994,0.837c3.856,0,7.53-2.244,9.171-6.005C201.877,123.407,199.564,117.513,194.502,115.305z"/> </g> </g><g> <g> <path d="M302.471,136.374c-4.178-3.61-10.493-3.152-14.105,1.025c-17.002,19.669-26.753,47.554-26.753,76.505 c0,5.522,4.477,10,10,10s10-4.478,10-10c0-24.22,7.976-47.337,21.884-63.425C307.108,146.3,306.649,139.986,302.471,136.374z"/> </g> </g><g> <g> <path d="M256.128,60.934c-5.523,0-10,4.478-10,10v57.651c0,5.522,4.477,10,10,10c5.523,0.001,10-4.477,10-9.999V70.934 C266.128,65.412,261.651,60.934,256.128,60.934z"/> </g> </g><g> <g> <path d="M502.001,492.001h-51.322l-4.129-5.239c-28.995-36.794-52.731-77.46-70.612-120.572l55.443-55.395l62.567,84.981 c1.96,2.663,4.99,4.072,8.061,4.072c2.059,0,4.136-0.634,5.921-1.948c4.448-3.274,5.398-9.534,2.124-13.981l-69.461-94.347 c-1.728-2.347-4.392-3.822-7.297-4.043c-2.909-0.216-5.763,0.839-7.823,2.897l-57.472,57.424 c-10.835-29.625-18.954-60.264-24.147-91.49c-0.802-4.823-4.975-8.359-9.865-8.359h-16.987c-3.354,0-6.484,1.682-8.336,4.478 l-15.929,24.044l-6.087-8.766c-3.229-4.648-8.535-7.423-14.193-7.423h-3.309c-7.04,0-13.315,4.208-15.988,10.723l-3.605,8.789 l-4.441-11.624c-2.365-6.191-7.934-10.421-14.533-11.038c-5.317-0.487-10.415,1.436-14.011,5.16l-8.198-10.497 c-1.895-2.428-4.802-3.846-7.881-3.846h-22.167c-4.881,0-9.048,3.523-9.861,8.336c-14.274,84.592-49.871,164.93-102.94,232.33 l-4.2,5.334H10.001c-5.523,0-10,4.478-10,10c0,5.522,4.477,10,10,10h492c5.523,0,10-4.478,10-10 C512.001,496.479,507.524,492.001,502.001,492.001z M86.673,492.002c50.42-66.305,84.858-144.096,100.033-226.001h8.903 l7.336,9.395c3.482,4.46,8.925,6.924,14.583,6.619c3.953-0.221,7.657-1.788,10.541-4.359l5.25,13.741 c2.546,6.663,8.799,11.025,15.932,11.112c7.105,0.047,13.492-4.12,16.2-10.721l5.519-13.454h0.063l7.561,10.889 c3.235,4.658,8.529,7.424,14.193,7.424c0.063,0,0.127,0,0.19-0.001c5.735-0.063,11.05-2.954,14.218-7.736l15.177-22.908h3.211 c14.987,81.925,49.322,159.713,99.739,226H86.673z"/> </g> </g><g> <g> <path d="M122.408,324.249l-35.88-35.825c-2.062-2.058-4.916-3.112-7.822-2.896c-2.905,0.221-5.569,1.697-7.296,4.043 L1.948,383.919c-3.275,4.447-2.324,10.707,2.124,13.981c1.785,1.314,3.862,1.948,5.921,1.948c3.07,0,6.101-1.41,8.061-4.072 l62.569-84.985l27.654,27.611c3.908,3.902,10.24,3.897,14.142-0.011C126.321,334.483,126.316,328.152,122.408,324.249z"/> </g> </g><g> <g> <path d="M194.478,353.782c-5.186-1.907-10.931,0.751-12.836,5.936c-13.057,35.516-29.795,69.79-49.75,101.87 c-2.917,4.69-1.48,10.856,3.209,13.773c1.644,1.022,3.469,1.51,5.272,1.51c3.34,0,6.606-1.674,8.5-4.719 c20.673-33.235,38.014-68.742,51.54-105.534C202.318,361.434,199.661,355.687,194.478,353.782z"/> </g> </g><g> <g> <path d="M206.218,315.358c-5.323-1.479-10.841,1.664-12.319,6.985c-1.475,5.312,1.629,10.801,6.936,12.291 c0.901,0.253,1.808,0.374,2.701,0.374c4.363,0,8.376-2.884,9.626-7.285c0.005-0.018,0.018-0.063,0.022-0.08 C214.662,322.322,211.539,316.837,206.218,315.358z"/> </g> </g></symbol></svg>