<?xml version="1.0" encoding="iso-8859-1"?>
<!-- Generator: Adobe Illustrator 19.0.0, SVG Export Plug-In . SVG Version: 6.00 Build 0)  -->
<svg version="1.1" id="Capa_1" xmlns="http://www.w3.org/2000/svg" xmlns:xlink="http://www.w3.org/1999/xlink" x="0px" y="0px"
	 viewBox="0 0 490.584 490.584" style="enable-background:new 0 0 490.584 490.584;" xml:space="preserve">
<path style="fill:#8899A6;" d="M280.668,0c86.082,0,125.245,23.147,138.257,48.672c16.015,31.53,6.506,136.506-31.405,208.825
	c-62.435,119.114-131.626,198.69-195.687,226.592c-50.673,22.021-37.411-19.018-37.411-19.018s50.924-82.454,37.911-157.776
	c-10.01-58.556-48.171-70.317-85.957-122.242C61.958,123.993,57.454,78.825,70.842,56.929C86.857,30.779,146.789,0,280.668,0z"/>
<g>
	<path style="fill:#66757F;" d="M71.191,57.08c-5.758,9.33-8.215,22.893-5.7,40.11c22.466,12.142,59.851,18.135,112.803,18.135
		c14.75,0,30.625-0.5,47.75-1.625c69.5-3.75,124.125-22.375,136.125-46.5c4-8.25,3.5-17.25-1.5-24.625
		c-13.375-19.75-60.25-23.875-139-15c-23.875,2.75-54.75,7.375-53.875,15.125c0.875,7.875,34.375,4.5,56.5,2.875
		c9.322-0.665,18.057-1.141,26.225-1.449c65.296-0.329,64.326,16.199,29.745,21.172c-150,21.5-199.125-16-125-37.875
		c88.875-26.375,202.125-21.375,249.5,4.125c0.413,0.222,0.808,0.416,1.215,0.627C386.024,14.074,347.542,0.204,280.941,0.204
		C147.066,0.205,87.191,30.955,71.191,57.08z"/>
	<path style="fill:#66757F;" d="M329.536,188.62c-2-9.625-38,0.5-45.625,2c-124.578,23.957-174.458-9.239-189.946-24.286
		c3.819,6.067,8.049,12.317,12.725,18.745c9.421,12.946,18.865,23.392,27.889,32.69c17.482,4.578,38.888,7.599,64.956,7.599
		c27.5,0,56.625-4.75,97.375-16.375C304.411,206.87,331.161,196.245,329.536,188.62z"/>
	<path style="fill:#66757F;" d="M421.551,55.283c-0.695,5.605-2.665,12.227-7.122,19.258
		c-13.625,21.375-49.875,56.125-203.375,70.75c-8.625,0.75-38.875,2.25-38.25,10.875c1,13.375,39.5,9.625,39.875,9.625
		c110.011-6.671,178.789-24.822,213.532-60.562C426.929,84.566,425.353,67.013,421.551,55.283z"/>
	<path style="fill:#66757F;" d="M285.229,304.04c-65.915,0.861-90.658-13.088-99.801-22.395c3.06,7.506,5.485,15.892,7.138,25.56
		c0.674,3.903,1.167,7.825,1.514,11.754c13.719,4.766,31.903,7.956,56.024,7.956c11.375,0,24.125-0.75,38-2.25
		c11.5-1.25,28.625-8,27.75-15.75S293.229,303.915,285.229,304.04z"/>
	<path style="fill:#66757F;" d="M275.843,243.096c-7.75,0.75-30.875,2-31.5,10.5c-1,12.625,32,11.125,32.125,11.125
		c57.581-2.333,97.363-18.263,123.792-35.223c6.342-16.133,11.508-33.091,15.52-49.96
		C403.903,196.245,367.023,235.115,275.843,243.096z"/>
	<path style="fill:#66757F;" d="M225.019,428.197c7.5,0.375,26.625-1.75,25.75-13.25c-0.5-5.5-7.125-6.375-24.25-7.75
		s-24.375-8.625-30.625-15.375c-3.682-3.937-5.668-8.732-6.731-13.058c-2.839,12.418-6.512,24.169-10.403,34.768
		C189.991,423.077,205.021,427.214,225.019,428.197z"/>
	<path style="fill:#66757F;" d="M224.608,365.768c-0.5,7.875,16.625,12.75,24.5,13.125c4.75,0.25,9.375,0.375,13.875,0.375
		c20.912,0,38.602-2.728,53.495-6.998c11.557-15.515,23.04-32.388,34.385-50.555c-14.182,12.858-43.69,30.906-99.755,34.928
		C243.358,357.268,224.983,357.893,224.608,365.768z"/>
</g>
<path style="fill:#CCD6DD;" d="M192.066,483.83c17.361-7.561,35.099-18.929,52.976-33.846c-0.268-0.005-0.53-0.029-0.799-0.029
	c-15.625,0-29.125,8.75-36.25,21.625c-7.5-7.75-17.875-12.75-29.5-12.75c-4.125,0-8,0.75-11.75,1.875
	c-2.269-1.688-4.707-3.119-7.277-4.281c-2.914,5.391-4.775,8.406-4.775,8.406S141.441,505.83,192.066,483.83z"/>
<g>
</g>
<g>
</g>
<g>
</g>
<g>
</g>
<g>
</g>
<g>
</g>
<g>
</g>
<g>
</g>
<g>
</g>
<g>
</g>
<g>
</g>
<g>
</g>
<g>
</g>
<g>
</g>
<g>
</g>
</svg>
